# xmcd
#
# Track frame offsets:
#	150
#	17200
#	29455
#	38555
#	57787
#	73045
#	95665
#	119855
#	134622
#	149612
#	162332
#	186717
#	208140
#	218725
#	249765
#	270610
#
# Disc length: 3866
#
# Revision: 2
# Processed by: cddbd v1.5.1PL0 Copyright (c) Steve Scherf et al.
# Submitted via: CDex 1.50
# Normalized: r1:TDELIM( - )
#
DISCID=000f1810
DTITLE=Various Artist - Lion on the Keys
DYEAR=1900
DGENRE=Jazz
TTITLE0=Art Tatum - Sweet Lorraine
TTITLE1=Art Tatum - Cocktails for Two
TTITLE2=Art Tatum - Liza
TTITLE3=Art Tatum - She's Funny That Way
TTITLE4=Art Tatum - Begin The Beguine
TTITLE5=Teddy Wilson - One O'clock Jump
TTITLE6=Teddy Wilson - Satin Doll
TTITLE7=Bud Powell - Salt Peanuts
TTITLE8=Bud Powell - Move
TTITLE9=Bud Powell - 52nd Street Theme
TTITLE10=Thelonius Monk - Evidence
TTITLE11=Thelonius Monk - Nutty
TTITLE12=Thelonius Monk - Crepuscle With Nellie
TTITLE13=Dollar Brand - Light Blue
TTITLE14=Dollar Brand - Honey
TTITLE15=Dollar Brand - Tintiyana
EXTD=
EXTT0=
EXTT1=
EXTT2=
EXTT3=
EXTT4=
EXTT5=
EXTT6=
EXTT7=
EXTT8=
EXTT9=
EXTT10=
EXTT11=
EXTT12=
EXTT13=
EXTT14=
EXTT15=
PLAYORDER=
